<?xml version="1.0" standalone="no"?>
<!DOCTYPE svg PUBLIC "-//W3C//DTD SVG 20010904//EN"
 "http://www.w3.org/TR/2001/REC-SVG-20010904/DTD/svg10.dtd">
<svg version="1.0" xmlns="http://www.w3.org/2000/svg"
 width="512.000000pt" height="512.000000pt" viewBox="0 0 512.000000 512.000000"
 preserveAspectRatio="xMidYMid meet">

<g transform="translate(0.000000,512.000000) scale(0.100000,-0.100000)"
fill="#000000" stroke="none">
<path d="M992 4833 c-18 -9 -43 -30 -55 -47 -21 -29 -22 -45 -29 -266 -4 -129
-5 -1112 -2 -2185 7 -2144 2 -1991 67 -2037 20 -14 50 -23 86 -26 66 -4 111
20 145 78 21 35 21 46 24 1065 l2 1031 238 54 237 55 195 0 c178 0 204 -3 302
-27 59 -15 189 -61 290 -102 308 -125 435 -155 683 -163 119 -4 188 -1 270 11
165 24 666 143 695 164 14 11 35 34 48 52 l22 33 0 939 c0 1037 3 983 -62
1030 -55 38 -94 35 -399 -36 -156 -36 -318 -70 -359 -76 -156 -20 -359 -6
-515 36 -33 9 -143 50 -245 92 -281 113 -399 144 -615 162 -197 16 -361 -4
-675 -79 -47 -12 -90 -21 -96 -21 -7 0 -13 31 -16 83 -5 95 -24 138 -78 174
-40 28 -109 30 -158 6z m1108 -495 c110 -15 225 -51 410 -128 175 -72 288
-108 435 -137 127 -25 434 -25 560 0 88 18 332 73 368 83 16 5 17 -32 15 -728
l-3 -733 -205 -47 c-245 -57 -319 -68 -455 -68 -210 0 -326 27 -619 144 -306
123 -457 156 -711 156 -163 0 -267 -14 -497 -68 l-168 -39 0 734 c0 403 4 733
8 733 5 0 105 23 223 50 299 70 421 79 639 48z"/>
</g>
</svg>
